<svg viewBox="0 0 900 360" role="img" aria-label="聊天操作数据库流程图">
  <defs><marker id="arrow" viewBox="0 0 10 10" refX="9" refY="5" markerWidth="7" markerHeight="7" orient="auto-start-reverse"><path d="M 0 0 L 10 5 L 0 10 z" fill="#334155"/></marker></defs>
  <style>svg { font-family: "Microsoft YaHei", "Noto Sans CJK SC", Arial, sans-serif; } text { fill: #0f172a; }</style>
  <rect x="35" y="55" width="170" height="70" rx="8" fill="#e0f2fe" stroke="#64748b"/><text x="120" y="82" font-size="14" font-weight="700" text-anchor="middle">聊天输入</text><text x="120" y="105" font-size="12" font-weight="400" text-anchor="middle">创建 / 查询 / 完成</text>
  <rect x="250" y="55" width="170" height="70" rx="8" fill="#ede9fe" stroke="#64748b"/><text x="335" y="82" font-size="14" font-weight="700" text-anchor="middle">LLM Router</text><text x="335" y="105" font-size="12" font-weight="400" text-anchor="middle">DeepSeek 结构化意图</text>
  <rect x="465" y="55" width="170" height="70" rx="8" fill="#fce7f3" stroke="#64748b"/><text x="550" y="82" font-size="14" font-weight="700" text-anchor="middle">ToolRegistry</text><text x="550" y="105" font-size="12" font-weight="400" text-anchor="middle">受控工具调用</text>
  <rect x="680" y="55" width="170" height="70" rx="8" fill="#dcfce7" stroke="#64748b"/><text x="765" y="82" font-size="14" font-weight="700" text-anchor="middle">AppStore</text><text x="765" y="105" font-size="12" font-weight="400" text-anchor="middle">SQLite 读写</text>
  <rect x="250" y="210" width="170" height="70" rx="8" fill="#fef3c7" stroke="#64748b"/><text x="335" y="237" font-size="14" font-weight="700" text-anchor="middle">Fallback Rules</text><text x="335" y="260" font-size="12" font-weight="400" text-anchor="middle">无 Key 时本地规则</text>
  <rect x="465" y="210" width="170" height="70" rx="8" fill="#f8fafc" stroke="#64748b"/><text x="550" y="237" font-size="14" font-weight="700" text-anchor="middle">Action Answer</text><text x="550" y="260" font-size="12" font-weight="400" text-anchor="middle">执行结果格式化</text>
  <rect x="680" y="210" width="170" height="70" rx="8" fill="#f1f5f9" stroke="#64748b"/><text x="765" y="237" font-size="14" font-weight="700" text-anchor="middle">Audit Log</text><text x="765" y="260" font-size="12" font-weight="400" text-anchor="middle">工具入参与结果</text>
  <path d="M205 90 L250 90" stroke="#334155" stroke-width="1.8" fill="none" marker-end="url(#arrow)"/><path d="M420 90 L465 90" stroke="#334155" stroke-width="1.8" fill="none" marker-end="url(#arrow)"/><path d="M635 90 L680 90" stroke="#334155" stroke-width="1.8" fill="none" marker-end="url(#arrow)"/>
  <path d="M335 125 L335 210" stroke="#334155" stroke-width="1.8" fill="none" marker-end="url(#arrow)"/><path d="M765 125 L765 210" stroke="#334155" stroke-width="1.8" fill="none" marker-end="url(#arrow)"/>
  <path d="M680 245 L635 245" stroke="#334155" stroke-width="1.8" fill="none" marker-end="url(#arrow)"/><path d="M465 245 L420 245" stroke="#334155" stroke-width="1.8" fill="none" marker-end="url(#arrow)"/>
</svg>