<svg viewBox="0 0 900 480" role="img" aria-label="EduRAG-Agent 系统架构图">
  <defs><marker id="arrow" viewBox="0 0 10 10" refX="9" refY="5" markerWidth="7" markerHeight="7" orient="auto-start-reverse"><path d="M 0 0 L 10 5 L 0 10 z" fill="#334155"/></marker></defs>
  <style>svg { font-family: "Microsoft YaHei", "Noto Sans CJK SC", Arial, sans-serif; } text { fill: #0f172a; }</style>
  <rect x="30" y="40" width="170" height="70" rx="8" fill="#e0f2fe" stroke="#64748b"/><text x="115" y="67" font-size="14" font-weight="700" text-anchor="middle">资料层</text><text x="115" y="90" font-size="12" font-weight="400" text-anchor="middle">课程 / 教务 / 校园</text>
  <rect x="250" y="40" width="150" height="70" rx="8" fill="#fef3c7" stroke="#64748b"/><text x="325" y="67" font-size="14" font-weight="700" text-anchor="middle">Loader</text><text x="325" y="90" font-size="12" font-weight="400" text-anchor="middle">文档读取</text>
  <rect x="450" y="40" width="150" height="70" rx="8" fill="#fef3c7" stroke="#64748b"/><text x="525" y="67" font-size="14" font-weight="700" text-anchor="middle">Splitter</text><text x="525" y="90" font-size="12" font-weight="400" text-anchor="middle">文本切分</text>
  <rect x="650" y="40" width="170" height="70" rx="8" fill="#dcfce7" stroke="#64748b"/><text x="735" y="67" font-size="14" font-weight="700" text-anchor="middle">Vector Store</text><text x="735" y="90" font-size="12" font-weight="400" text-anchor="middle">本地检索索引</text>
  <path d="M200 75 L250 75" stroke="#334155" stroke-width="1.8" fill="none" marker-end="url(#arrow)"/><path d="M400 75 L450 75" stroke="#334155" stroke-width="1.8" fill="none" marker-end="url(#arrow)"/><path d="M600 75 L650 75" stroke="#334155" stroke-width="1.8" fill="none" marker-end="url(#arrow)"/>
  <rect x="30" y="200" width="170" height="70" rx="8" fill="#ede9fe" stroke="#64748b"/><text x="115" y="227" font-size="14" font-weight="700" text-anchor="middle">入口层</text><text x="115" y="250" font-size="12" font-weight="400" text-anchor="middle">CLI / Web / MCP</text>
  <rect x="250" y="200" width="170" height="70" rx="8" fill="#dbeafe" stroke="#64748b"/><text x="335" y="227" font-size="14" font-weight="700" text-anchor="middle">EduRagAgent</text><text x="335" y="250" font-size="12" font-weight="400" text-anchor="middle">plan / act / observe</text>
  <rect x="470" y="200" width="170" height="70" rx="8" fill="#fce7f3" stroke="#64748b"/><text x="555" y="227" font-size="14" font-weight="700" text-anchor="middle">ToolRegistry</text><text x="555" y="250" font-size="12" font-weight="400" text-anchor="middle">工具 schema</text>
  <rect x="690" y="200" width="170" height="70" rx="8" fill="#dcfce7" stroke="#64748b"/><text x="775" y="227" font-size="14" font-weight="700" text-anchor="middle">Answer</text><text x="775" y="250" font-size="12" font-weight="400" text-anchor="middle">答案 + 来源</text>
  <path d="M200 235 L250 235" stroke="#334155" stroke-width="1.8" fill="none" marker-end="url(#arrow)"/><path d="M420 235 L470 235" stroke="#334155" stroke-width="1.8" fill="none" marker-end="url(#arrow)"/><path d="M640 235 L690 235" stroke="#334155" stroke-width="1.8" fill="none" marker-end="url(#arrow)"/>
  <path d="M555 200 L720 110" stroke="#334155" stroke-width="1.8" fill="none" marker-end="url(#arrow)"/><path d="M735 110 L735 200" stroke="#334155" stroke-width="1.8" fill="none" marker-end="url(#arrow)"/>
  <rect x="250" y="350" width="170" height="70" rx="8" fill="#f1f5f9" stroke="#64748b"/><text x="335" y="377" font-size="14" font-weight="700" text-anchor="middle">AppStore</text><text x="335" y="400" font-size="12" font-weight="400" text-anchor="middle">用户 / 会话 / 待办</text>
  <rect x="470" y="350" width="170" height="70" rx="8" fill="#f1f5f9" stroke="#64748b"/><text x="555" y="377" font-size="14" font-weight="700" text-anchor="middle">JSONL Logs</text><text x="555" y="400" font-size="12" font-weight="400" text-anchor="middle">行为观测</text>
  <path d="M335 270 L335 350" stroke="#334155" stroke-width="1.8" fill="none" marker-end="url(#arrow)"/><path d="M420 235 L555 350" stroke="#334155" stroke-width="1.8" fill="none" marker-end="url(#arrow)"/>
</svg>